# xmcd
# 
# Track frame offsets:
#     183
#     13693
#     26820
#     41925
#     55990
#     69785
#     85388
#     96810
#     111538
#     124903
#     139675
#     153593
#     165620
#     177610
#     191950
#     204893
#     217985
#     230763
#     244185
#     257455
# 
# Disc length: 3588
# 
# Revision: 0
# Processed by: cddbd v1.5.2PL0 Copyright (c) Steve Scherf et al.
# Submitted via: BonkEnc v1.0.8
# 
DISCID=270e0214
DTITLE=Eddie Boyd - Third Degree
DYEAR=0
DGENRE=Blues
TTITLE0=Picture in the frame
TTITLE1=I got the Blues
TTITLE2=Got Lonesome Here
TTITLE3=Blues For my Baby
TTITLE4=Cool Kind Treatment
TTITLE5=24 Hours
TTITLE6=Hard Time Getting Started
TTITLE7=Best I Could
TTITLE8=The Tickler (alt.)
TTITLE9=Third Degree
TTITLE10=Rattin' and Runnin' Round
TTITLE11=Just a Fool
TTITLE12=Hush Baby Don't You Cry
TTITLE13=Nothing But Trouble
TTITLE14=I Got The Blues
TTITLE15=Driftin'
TTITLE16=Got Me Seein' Double
TTITLE17=I'M a Prisioner
TTITLE18=Treat Her Rigth
TTITLE19=Come On Home
EXTD=porquesoyunloquillo
EXTT0=
EXTT1=
EXTT2=
EXTT3=
EXTT4=
EXTT5=
EXTT6=
EXTT7=
EXTT8=
EXTT9=
EXTT10=
EXTT11=
EXTT12=
EXTT13=
EXTT14=
EXTT15=
EXTT16=
EXTT17=
EXTT18=
EXTT19=
PLAYORDER=
